<svg width="190" height="190" viewBox="0 0 190 190" fill="none" xmlns="http://www.w3.org/2000/svg">
<path d="M63.1146 114.478L44.4121 95.867M124.24 123.601L101.797 101.158M5 184.727C5 184.727 95.0456 152.796 121.138 126.703C124.954 122.893 127.982 118.369 130.049 113.389C132.117 108.409 133.183 103.07 133.187 97.6783C133.191 92.2861 132.134 86.9458 130.074 81.9625C128.014 76.9791 124.993 72.4502 121.183 68.6344C117.374 64.8185 112.849 61.7904 107.869 59.723C102.889 57.6556 97.5507 56.5893 92.1585 56.5851C86.7663 56.5808 81.426 57.6387 76.4427 59.6983C71.4593 61.7579 66.9304 64.7789 63.1146 68.5887C36.9311 94.7722 5 184.727 5 184.727Z" stroke="white" stroke-width="9" stroke-linecap="round" stroke-linejoin="round"/>
<path d="M185 68.8629C185 68.8629 172.866 50.6166 153.069 50.6166C138.107 50.6166 121.138 68.8629 121.138 68.8629C121.138 68.8629 133.272 87.1092 153.069 87.1092C172.866 87.1092 185 68.8629 185 68.8629Z" stroke="white" stroke-width="9" stroke-linecap="round" stroke-linejoin="round"/>
<path d="M121.138 5C121.138 5 102.892 17.1338 102.892 36.9311C102.892 56.7283 121.138 68.8621 121.138 68.8621C121.138 68.8621 139.384 52.0755 139.384 36.9311C139.384 17.1338 121.138 5 121.138 5Z" stroke="white" stroke-width="9" stroke-linecap="round" stroke-linejoin="round"/>
</svg>
